<svg width="10" height="18" viewBox="0 0 10 18" fill="none" xmlns="http://www.w3.org/2000/svg">
<path d="M7.98493 0C8.29379 0.0234344 8.60266 0.0468689 8.91106 0.0712407C9.10275 0.0867075 9.29351 0.106392 9.48942 0.124671V2.98789C9.41068 2.98789 9.33709 2.98789 9.26304 2.98789C8.65375 2.99773 8.04445 2.98039 7.43797 3.02539C6.78555 3.07226 6.40123 3.41159 6.35998 4.06447C6.30421 4.94936 6.34592 5.84033 6.34592 6.74818H9.22273C9.08869 7.82617 8.95746 8.87838 8.82435 9.94605H6.33092C6.32577 10.0103 6.3178 10.0604 6.3178 10.1106C6.3178 12.6874 6.3178 15.2652 6.3178 17.8439C6.3178 17.896 6.32764 17.948 6.33233 18H3.09837C3.10166 17.9475 3.10775 17.895 3.10775 17.843C3.10775 15.2724 3.10775 12.7016 3.10775 10.1307V9.95823H0.510742V6.75709H3.10869C3.10869 6.67319 3.10869 6.6057 3.10869 6.53821C3.11665 5.59568 3.09134 4.65127 3.14196 3.71108C3.20149 2.60497 3.58159 1.61932 4.45429 0.877386C5.03687 0.374951 5.72959 0.131702 6.48184 0.0351517C6.53855 0.0281213 6.59339 0.0117172 6.65057 0H7.98493Z" fill="white"/>
</svg>
