<svg width="24" height="24" viewBox="0 0 24 24" fill="none" xmlns="http://www.w3.org/2000/svg">
<path d="M8.4081 0H15.5835C16.1438 0.0310726 16.704 0.060262 17.2643 0.0941594C18.243 0.151597 19.2044 0.320142 20.1036 0.725027C22.3112 1.71794 23.4741 3.48625 23.8356 5.83129C23.8997 6.24559 23.9298 6.66507 23.9769 7.08173V16.7429C23.9628 16.8503 23.9472 16.9576 23.9345 17.065C23.8724 17.5913 23.8455 18.1257 23.7396 18.6436C23.2631 20.9373 21.9675 22.5667 19.7628 23.425C18.7063 23.8364 17.5933 23.9485 16.4728 23.9598C13.9334 23.9857 11.3934 24.0097 8.85347 23.996C7.60586 23.9895 6.35213 23.9843 5.12476 23.6867C3.13753 23.2042 1.66158 22.0771 0.784015 20.2165C0.244011 19.0715 0.0778196 17.8394 0.0655789 16.5914C0.0382727 13.9949 0.00955405 11.3999 0.0302691 8.8039C0.0334608 7.71051 0.112114 6.61865 0.265667 5.5361C0.512365 3.86053 1.32166 2.46368 2.69592 1.43263C3.87291 0.548949 5.23822 0.197735 6.67933 0.0955717C7.25512 0.0550832 7.83184 0.0315434 8.4081 0ZM12.0285 21.892V21.8553C12.6617 21.8553 13.2954 21.8742 13.9277 21.8516C15.285 21.8045 16.6527 21.8181 17.9968 21.6501C19.8433 21.4189 21.0956 20.3596 21.5494 18.5216C21.7326 17.7792 21.7961 16.9929 21.8093 16.2246C21.8508 13.8104 21.8627 11.3955 21.8451 8.97998C21.845 8.00436 21.7863 7.02963 21.6695 6.06104C21.4242 4.1303 20.2204 2.82478 18.3179 2.44485C17.4968 2.28101 16.6437 2.23158 15.8034 2.21792C13.7017 2.18261 11.5992 2.18921 9.4947 2.19627C8.29228 2.20003 7.08657 2.1845 5.89498 2.394C4.07583 2.71461 2.82774 3.86948 2.45581 5.68346C2.29527 6.46545 2.24254 7.27852 2.22559 8.07934C2.18464 10.0011 2.1691 11.9248 2.19076 13.8471C2.20582 15.2049 2.2416 16.5673 2.37154 17.9181C2.49866 19.2363 3.12105 20.3267 4.27827 21.0451C5.06073 21.5305 5.94018 21.7249 6.84646 21.7574C8.57382 21.8191 10.3007 21.8478 12.0285 21.892Z" fill="white"/>
<path d="M5.84696 12.0053C5.85214 8.59674 8.62937 5.82845 12.0285 5.84258C15.4451 5.8567 18.2044 8.62875 18.1833 12.0256C18.1621 15.4355 15.4107 18.1807 12.0158 18.1775C8.61101 18.1727 5.84178 15.4026 5.84696 12.0053ZM8.02016 12.0053C8.01932 12.796 8.25304 13.5692 8.69175 14.227C9.13045 14.8848 9.75442 15.3977 10.4847 15.7008C11.215 16.0039 12.0188 16.0836 12.7944 15.9298C13.57 15.7759 14.2825 15.3955 14.8418 14.8366C15.4011 14.2777 15.782 13.5654 15.9364 12.7899C16.0908 12.0145 16.0117 11.2106 15.7091 10.4801C15.4065 9.74961 14.8941 9.12528 14.2366 8.68611C13.579 8.24694 12.806 8.01267 12.0153 8.01295C11.4906 8.01165 10.9707 8.114 10.4856 8.31414C10.0004 8.51428 9.55963 8.80826 9.18842 9.17921C8.81721 9.55015 8.52292 9.99076 8.32243 10.4757C8.12195 10.9607 8.01923 11.4805 8.02016 12.0053Z" fill="white"/>
<path d="M18.4582 4.1623C18.835 4.17584 19.1914 4.33701 19.4505 4.61104C19.7095 4.88507 19.8504 5.24997 19.8428 5.62697C19.8351 6.00398 19.6795 6.36285 19.4095 6.62612C19.1396 6.8894 18.7769 7.03596 18.3998 7.03417C18.2093 7.03326 18.0209 6.99446 17.8455 6.92004C17.6701 6.84561 17.5113 6.73705 17.3783 6.60065C17.2453 6.46426 17.1407 6.30277 17.0707 6.12559C17.0007 5.9484 16.9667 5.75906 16.9705 5.56859C16.9744 5.37811 17.0161 5.19031 17.0933 5.01612C17.1704 4.84193 17.2815 4.68482 17.4199 4.55394C17.5584 4.42307 17.7214 4.32105 17.8997 4.25381C18.078 4.18657 18.2678 4.15547 18.4582 4.1623Z" fill="white"/>
</svg>
