<svg width="36" height="33" viewBox="0 0 36 33" fill="none" xmlns="http://www.w3.org/2000/svg">
<path d="M22.9017 7.85229H13.1924V25.1487H22.9017V7.85229Z" fill="#FF5F00"/>
<path d="M13.8087 16.4995C13.8071 14.8337 14.1879 13.1895 14.9222 11.6911C15.6564 10.1928 16.7249 8.87975 18.0468 7.85132C16.4099 6.57582 14.4439 5.7826 12.3738 5.56234C10.3036 5.34207 8.21262 5.70363 6.33992 6.60571C4.46722 7.50779 2.88831 8.91398 1.78368 10.6636C0.679048 12.4131 0.0932617 14.4355 0.0932617 16.4995C0.0932617 18.5635 0.679048 20.5859 1.78368 22.3355C2.88831 24.085 4.46722 25.4912 6.33992 26.3933C8.21262 27.2954 10.3036 27.657 12.3738 27.4367C14.4439 27.2164 16.4099 26.4232 18.0468 25.1477C16.7249 24.1193 15.6564 22.8062 14.9222 21.3079C14.1879 19.8096 13.8071 18.1653 13.8087 16.4995Z" fill="#EB001B"/>
<path d="M36.0001 16.4995C36.0002 18.5635 35.4145 20.5858 34.3099 22.3354C33.2053 24.085 31.6265 25.4912 29.7538 26.3933C27.8811 27.2954 25.7902 27.657 23.7201 27.4367C21.6499 27.2164 19.684 26.4232 18.0471 25.1477C19.3678 24.1182 20.4355 22.8049 21.1696 21.3069C21.9038 19.8088 22.2852 18.165 22.2852 16.4995C22.2852 14.834 21.9038 13.1902 21.1696 11.6922C20.4355 10.1941 19.3678 8.88079 18.0471 7.85131C19.684 6.57581 21.6499 5.7826 23.7201 5.56233C25.7902 5.34207 27.8811 5.70365 29.7538 6.60573C31.6265 7.50782 33.2053 8.91402 34.3099 10.6636C35.4145 12.4132 36.0002 14.4355 36.0001 16.4995Z" fill="#F79E1B"/>
<path d="M34.9413 23.3183V22.9642H35.0853V22.8921H34.7185V22.9642H34.8626V23.3183H34.9413ZM35.6535 23.3183V22.8914H35.541L35.4117 23.185L35.2823 22.8914H35.1698V23.3183H35.2492V22.9963L35.3705 23.2739H35.4528L35.5741 22.9956V23.3183H35.6535Z" fill="#F79E1B"/>
</svg>
