<svg width="44" height="29" viewBox="0 0 44 29" fill="none" xmlns="http://www.w3.org/2000/svg">
<path d="M44 27.2904C44 28.2402 43.2727 29 42.3636 29H1.63636C0.727271 29 0 28.2402 0 27.2904V1.70961C0 0.759828 0.727271 0 1.63636 0H42.3636C43.2727 0 44 0.759828 44 1.70961V27.2904Z" fill="white"/>
<path d="M16.7273 8.4214L11.8182 20.6419H8.60608L6.18183 10.8908C6.06062 10.321 5.8788 10.0677 5.45456 9.81441C4.72729 9.4345 3.51517 8.99127 2.48486 8.80132L2.54547 8.4214H7.69698C8.36365 8.4214 8.96971 8.86464 9.09093 9.68778L10.3637 16.7795L13.5152 8.48472H16.7273V8.4214ZM29.2727 16.6528C29.2727 13.4236 25.0303 13.2336 25.0303 11.8406C25.0303 11.3974 25.4546 10.9542 26.303 10.8275C26.7273 10.7642 27.9394 10.7009 29.2727 11.3974L29.8182 8.80132C29.0909 8.54804 28.1818 8.23145 26.9697 8.23145C24 8.23145 21.8788 9.87773 21.8788 12.2838C21.8788 14.0568 23.394 15.0066 24.5455 15.5764C25.697 16.1463 26.1212 16.5262 26.1212 17.0961C26.1212 17.9192 25.2121 18.2991 24.303 18.2991C22.7879 18.2991 21.8788 17.8559 21.2121 17.5393L20.6667 20.1987C21.394 20.5153 22.6667 20.8319 24 20.8319C27.1515 20.8319 29.2121 19.1856 29.2727 16.6528ZM37.1515 20.6419H39.9394L37.5152 8.4214H34.9091C34.303 8.4214 33.8182 8.80132 33.6364 9.30787L29.0909 20.6419H32.2424L32.8485 18.8057H36.7273L37.1515 20.6419ZM33.7576 16.3363L35.3334 11.7773L36.2424 16.3363H33.7576ZM21.0303 8.4214L18.5455 20.6419H15.5152L18 8.4214H21.0303Z" fill="#1A1F71"/>
</svg>
