<svg width="55" height="29" viewBox="0 0 55 29" fill="none" xmlns="http://www.w3.org/2000/svg">
<g clip-path="url(#clip0_2_1166)">
<path d="M55 0H0V29H55V0Z" fill="white"/>
<path d="M49.5254 9.10278L52.3264 14.4973L46.4368 19.8959L49.5254 9.10278Z" fill="#088C45"/>
<path d="M47.5852 9.10278L50.3823 14.4973L44.4978 19.8959L47.5852 9.10278Z" fill="#F37A21"/>
<path d="M7.22382 12.368H8.58354C9.06097 12.368 9.41236 12.3022 9.62879 12.1652C9.86711 12.0028 10.0371 11.7499 10.1037 11.459C10.2017 11.1167 10.1775 10.879 10.0375 10.7434C9.89743 10.6078 9.56004 10.5394 9.02914 10.5394H7.74835L7.22382 12.368ZM2.67358 17.9317L5.46687 8.17236H9.93053C11.331 8.17236 12.2578 8.38718 12.7315 8.82889C13.2051 9.2706 13.2929 9.98218 13.009 10.9864C12.8599 11.5377 12.5889 12.0439 12.2184 12.4633C11.825 12.8843 11.3462 13.2056 10.8179 13.4031C11.3068 13.5172 11.6187 13.7441 11.7588 14.0851C11.8988 14.4262 11.8861 14.9202 11.7129 15.5714L11.373 16.9341V16.9704C11.275 17.353 11.3043 17.5571 11.4634 17.5732L11.3603 17.9344H8.34037C8.35055 17.7048 8.36965 17.4994 8.39002 17.3275C8.40527 17.1914 8.43039 17.0568 8.46513 16.9247L8.7465 15.95C8.88909 15.4425 8.898 15.0894 8.7656 14.8867C8.63319 14.6839 8.33527 14.5738 7.86548 14.5738H6.59233L5.62474 17.9384L2.67358 17.9317Z" fill="#28387D"/>
<path d="M21.3022 10.73L19.2423 17.9317H16.7406L17.0487 16.8777C16.6522 17.267 16.1975 17.5845 15.7029 17.8175C15.2527 18.0238 14.7666 18.129 14.2757 18.1263C13.9135 18.1375 13.5534 18.0636 13.2216 17.9102C12.942 17.775 12.7131 17.5454 12.571 17.2577C12.4344 16.9666 12.3779 16.641 12.408 16.3179C12.4309 15.9513 12.5646 15.3324 12.8129 14.4651L13.8772 10.73H16.6145L15.5489 14.4503C15.3936 14.9941 15.3554 15.3767 15.433 15.5861C15.5107 15.7956 15.722 15.9043 16.0696 15.9043C16.2314 15.9083 16.3922 15.8777 16.5425 15.8145C16.6928 15.7513 16.8295 15.6567 16.9443 15.5365C17.2193 15.2276 17.4155 14.8502 17.5146 14.4396L18.5713 10.73H21.3022Z" fill="#28387D"/>
<path d="M24.8366 12.5614H25.8017C26.4255 12.5614 26.8635 12.4862 27.1207 12.3425C27.3882 12.1678 27.5799 11.889 27.6541 11.5665C27.7623 11.1933 27.7343 10.9315 27.5714 10.7851C27.4084 10.6388 27.0137 10.5663 26.372 10.5663H25.4096L24.8366 12.5614ZM20.3093 17.9317L23.0988 8.17242H26.9373C27.597 8.15318 28.2569 8.20401 28.9069 8.32413C29.3077 8.395 29.6863 8.56679 30.0107 8.82492C30.3416 9.114 30.5667 9.51563 30.6473 9.96076C30.7288 10.4146 30.6804 10.9422 30.5034 11.5625C30.1902 12.6535 29.6432 13.4909 28.8623 14.0745C28.0781 14.6504 27.1105 14.9404 25.9532 14.9404H24.1555L23.2987 17.9317H20.3093Z" fill="#28387D"/>
<path d="M34.3878 14.7162C34.0149 14.8528 33.6349 14.9666 33.2496 15.0573C32.5125 15.2493 32.0974 15.5057 32.0083 15.8225C31.9754 15.9009 31.9642 15.9875 31.9759 16.0723C31.9876 16.157 32.0218 16.2366 32.0745 16.3018C32.1738 16.4146 32.3508 16.4724 32.5978 16.4724C32.9863 16.493 33.3703 16.3763 33.6888 16.1407C33.9613 15.9179 34.165 15.5688 34.3076 15.0855C34.3331 14.9834 34.356 14.9096 34.3687 14.8545L34.3878 14.7162ZM33.7219 17.9385L33.75 17.2551C33.3395 17.5609 32.8886 17.8016 32.4119 17.9693C31.9486 18.1261 31.4648 18.2045 30.9783 18.2016C30.203 18.2016 29.6619 17.9975 29.3499 17.6015C29.038 17.2054 28.9896 16.6362 29.201 15.9112C29.4123 15.1862 29.7612 14.6679 30.2781 14.3309C30.795 13.9939 31.6518 13.7455 32.8575 13.5898C33.0103 13.5656 33.2152 13.5468 33.4724 13.516C34.3636 13.4166 34.864 13.1857 34.9709 12.8098C35.0282 12.6043 34.9938 12.4526 34.8614 12.3587C34.729 12.2647 34.4973 12.215 34.1535 12.215C33.9092 12.2043 33.6668 12.2652 33.4533 12.3909C33.26 12.5157 33.1114 12.7046 33.0306 12.9279H30.357C30.4713 12.5328 30.6609 12.1664 30.9142 11.8513C31.1675 11.5362 31.4791 11.2789 31.83 11.0953C32.5659 10.6791 33.5373 10.4777 34.7392 10.4777C35.2502 10.4705 35.7603 10.5254 36.2593 10.6415C36.6165 10.7079 36.9548 10.8589 37.2486 11.0832C37.4879 11.2749 37.6516 11.5532 37.7082 11.8646C37.7591 12.1532 37.7082 12.5668 37.5478 13.1092L36.4019 17.1235C36.3659 17.2381 36.3571 17.3603 36.3765 17.4793C36.3972 17.5793 36.4509 17.6682 36.528 17.7304L36.4669 17.9331L33.7219 17.9385Z" fill="#28387D"/>
<path d="M36.4909 20.7699L37.0982 18.6378H37.8812C38.0933 18.6507 38.305 18.6044 38.4948 18.5036C38.6502 18.394 38.76 18.2259 38.8016 18.0337C38.8313 17.9336 38.8509 17.8306 38.8602 17.7262C38.8679 17.5948 38.8679 17.463 38.8602 17.3315L38.449 10.73H41.2194L41.1761 15.1001L43.595 10.73H46.1643L41.8865 17.8967C41.401 18.7023 41.0471 19.2532 40.8247 19.5495C40.6422 19.8061 40.4282 20.0359 40.1881 20.2328C39.9285 20.4463 39.6305 20.6021 39.3122 20.6907C38.8337 20.7977 38.3446 20.8428 37.8557 20.8249C37.6673 20.8249 37.4521 20.8249 37.2191 20.8088C36.9861 20.7927 36.7391 20.7873 36.4871 20.7672" fill="#28387D"/>
</g>
<defs>
<clipPath id="clip0_2_1166">
<rect width="55" height="29" fill="white"/>
</clipPath>
</defs>
</svg>
