<svg width="33" height="33" viewBox="0 0 33 33" fill="none" xmlns="http://www.w3.org/2000/svg">
<path d="M27.0849 8.09434L28.1745 5.21462H33V0H0V33H33V27.7854H28.408L26.6958 25.7618L24.9835 27.7075H12.0637V17.3561H7.78302L13.1533 5.29245H18.3679L19.6132 8.01651V5.29245H26.0731L27.0849 8.09434ZM23.5047 10.0401V8.87264L23.9717 10.0401L26.1509 15.7995H28.1745L30.3538 10.0401L30.7429 8.87264V15.7217H33V6.92689H29.2641L27.5519 11.3632L27.0849 12.6085L26.6179 11.3632L24.9057 6.92689H21.1698V15.6439H23.5047V10.0401ZM18.6792 15.6439H21.2476L17.3561 6.84906H14.3208L10.4292 15.6439H12.9976L13.6981 13.9316H17.9788L18.6792 15.6439ZM15.4104 9.88443L15.8774 8.79481L16.3443 9.88443L17.2783 12.1415H14.5542L15.4104 9.88443ZM13.8538 17.3561V26.1509H21.1698V24.2052H16.033V22.6486H21.0141V20.7807H16.033V19.2241H21.1698V17.3561H13.8538ZM29.4198 25.9953H32.2995L28.1745 21.6368L32.2995 17.2783H29.4198L26.7736 20.158L24.1274 17.2783H21.1698L25.2948 21.7146L21.1698 26.0731H23.9717L26.6179 23.1934L29.4198 25.9953ZM30.5094 21.7146L33 24.283V19.2241L30.5094 21.7146Z" fill="#006FCF"/>
</svg>
