<svg width="24" height="18" viewBox="0 0 24 18" fill="none" xmlns="http://www.w3.org/2000/svg">
<path d="M0.956543 15.9725C3.41527 16.1926 5.60894 15.5969 7.61127 14.0911C6.25615 14.0125 5.1623 13.4986 4.29502 12.5273C3.87168 12.053 3.49224 11.3738 3.40877 10.938C4.05923 11.016 4.69939 11.0328 5.36556 10.848C2.8922 10.229 1.73384 8.06999 1.8016 6.37067C2.12249 6.49209 2.43417 6.63573 2.75994 6.72571C3.08652 6.80752 3.42009 6.85833 3.75622 6.87749C2.67971 6.05412 2.02167 4.99387 1.85905 3.66314C1.73005 2.61265 1.96204 1.62612 2.44718 0.844491C4.90103 3.73036 8.00317 5.3256 11.81 5.58199C11.7005 5.00451 11.6845 4.41317 11.7628 3.83063C11.9894 2.15029 13.3646 0.589186 15.0081 0.170725C16.6931 -0.258578 18.1722 0.121759 19.4453 1.31174C19.4839 1.3425 19.5284 1.36502 19.576 1.37788C19.6236 1.39075 19.6734 1.3937 19.7223 1.38654C20.5992 1.20744 21.4428 0.892703 22.2227 0.453674C22.2769 0.422235 22.336 0.396217 22.4341 0.345264C22.0883 1.40822 21.4427 2.18552 20.5678 2.79695C21.4167 2.71456 22.2168 2.47606 22.9957 2.15354L23.0434 2.20774C22.6775 2.63542 22.33 3.08098 21.9403 3.48589C21.6313 3.80624 21.266 4.0713 20.9375 4.37377C20.8583 4.44734 20.8094 4.54786 20.8004 4.65563C20.7955 9.33676 18.9525 13.097 15.1398 15.8375C13.5321 16.9937 11.6961 17.6193 9.73285 17.8767C7.89784 18.1278 6.03066 17.9944 4.25003 17.4848C3.12013 17.1589 2.04159 16.6759 1.04598 16.05C1.01469 16.0259 0.984826 16.0001 0.956543 15.9725H0.956543Z" fill="white"/>
</svg>
